<svg width="300" height="136" viewBox="0 0 300 136" fill="none" xmlns="http://www.w3.org/2000/svg">
<path d="M40.2961 5.54492C59.072 -2.75759 81.6755 -1.66542 99.5979 8.34277C108.226 13.0204 115.574 19.7908 121.494 27.5869C119.294 29.0528 117.147 30.5858 114.96 32.0518C105.546 19.0981 90.6901 10.2625 74.7678 8.33008C56.8054 5.75809 37.8964 12.3016 25.1614 25.1885C11.9462 38.2087 5.53204 57.732 8.49243 76.043C11.1061 93.8875 22.4412 110.16 38.2434 118.862C55.9924 128.937 78.7552 128.644 96.5042 118.702C94.5039 115.357 92.5176 111.999 90.4241 108.707C100.372 108.707 110.32 108.72 120.254 108.693C115.427 117.676 110.813 126.778 106.479 136C104.359 132.482 102.292 128.924 100.279 125.339C82.6894 135.667 60.2856 136.933 41.4963 129.097C25.6543 122.66 12.5726 109.826 5.69165 94.1807C-2.01604 76.9758 -1.86916 56.4793 5.97192 39.3545C12.6928 24.3488 25.2276 12.1017 40.2961 5.54492ZM117.494 52.0547C126.429 47.4173 137.95 48.6567 146.031 54.5869C144.498 57.6654 142.964 60.7445 141.471 63.8496C136.284 59.9982 125.882 56.4397 122.402 64.1025C126.962 70.9256 136.643 70.5528 142.377 76.083C149.098 81.2804 148.205 92.4748 141.231 97.0459C131.389 103.536 117.267 101.284 108.853 93.3945C110.906 90.7159 112.76 87.8908 114.493 84.999C118.681 88.344 123.869 90.8891 129.376 90.2627C131.923 90.1292 135.003 88.2371 134.603 85.332C133.283 82.187 129.722 81.1341 126.882 79.8281C121.255 77.456 114.721 75.1637 111.774 69.3535C108.667 63.2099 111.454 55.2265 117.494 52.0547ZM203.36 31.1719C207.52 31.0786 211.694 31.0783 215.855 31.1982C215.588 53.9603 215.628 76.7363 215.841 99.5117C211.867 99.6317 207.906 99.645 203.946 99.5117C204.092 97.1263 204.306 94.7408 204.546 92.3555C198.905 101.044 186.543 103.283 177.849 97.9658C169.861 93.2615 166.621 83.4264 166.874 74.5908C166.821 66.3949 169.955 57.6258 176.943 52.8682C184.957 47.4976 197.199 47.8169 203.706 55.4531C203.16 47.3772 203.613 39.2612 203.36 31.1719ZM223.856 59.8516C231.177 48.2839 249.553 45.4445 259.674 54.8398C265.728 60.5436 266.995 69.3795 266.235 77.2822C254.767 77.6021 243.285 77.1497 231.83 77.5361C232.844 82.0271 235.057 86.6245 239.485 88.6367C246.632 92.3681 255.087 89.4896 261.221 85.0918C262.688 88.0104 264.261 90.8761 266.022 93.6348C255.794 102.244 239.391 103.576 228.737 95.0342C218.442 86.7983 216.748 70.6596 223.856 59.8516ZM83.1829 50.1357C88.6767 48.7765 94.984 48.8167 99.9045 51.9082C104.652 55.0799 106.452 61.0504 106.439 66.501C106.572 77.5089 106.293 88.5308 106.586 99.5254C102.492 99.6187 98.3981 99.6188 94.3176 99.6055C94.2376 89.0375 94.4772 78.4557 94.2239 67.8877C94.2239 64.3562 91.7306 60.5578 87.9036 60.5176C79.9692 59.3315 72.9142 66.3545 72.554 74.0439C72.2339 82.5597 72.5275 91.0763 72.4475 99.6055C68.3137 99.6188 64.1799 99.6183 60.0461 99.5117C60.3395 83.1331 60.1656 66.7546 60.1389 50.376C64.1261 50.3626 68.1009 50.3626 72.0881 50.376C71.9815 53.4678 71.8206 56.5465 71.5139 59.625C74.461 55.507 78.0755 51.4418 83.1829 50.1357ZM162.953 50.376C162.927 66.7809 162.913 83.1859 162.953 99.5908C158.82 99.6175 154.699 99.6174 150.578 99.5508C150.658 83.1592 150.725 66.7676 150.578 50.376C154.699 50.3627 158.82 50.3627 162.953 50.376ZM287.371 53.9473C290.652 50.669 295.345 49.5091 299.879 49.6689C299.946 53.7203 299.933 57.7856 299.999 61.8369C292.385 60.5977 284.691 65.7681 283.33 73.4043C281.917 82.0267 282.704 90.8357 282.731 99.5381C278.597 99.618 274.462 99.6185 270.328 99.5918C270.368 83.1866 270.355 66.7809 270.342 50.3623C274.289 50.3623 278.237 50.3626 282.198 50.376C282.211 54.054 282.01 57.7458 281.89 61.4238C284.157 59.2516 284.878 55.933 287.371 53.9473ZM38.3362 31.1855C42.5367 31.0789 46.7372 31.0919 50.9377 31.1318C50.8844 53.9605 50.9247 76.7759 50.9114 99.6045C46.7376 99.6045 42.5637 99.6051 38.3899 99.5918C38.3632 76.7898 38.4829 53.9875 38.3362 31.1855ZM202.252 67.0342C199.999 61.2638 192.891 57.9588 187.144 60.624C178.543 64.4621 177.476 76.3227 181.143 83.959C184.117 90.8622 194.185 92.6345 199.439 87.3838C204.599 82.1464 204.893 73.5509 202.252 67.0342ZM254.527 68.6738C253.78 63.4497 249.819 58.0784 243.978 58.7314C238.017 58.4119 233.697 63.4491 232.123 68.7129C239.578 69.0194 247.072 69.1003 254.527 68.6738ZM162.873 31.1182C162.86 34.7429 162.861 38.3678 162.861 42.0059C158.767 42.0059 154.672 42.0061 150.578 41.9795C150.578 38.368 150.579 34.756 150.566 31.1445C154.673 31.1046 158.78 31.1048 162.873 31.1182Z" fill="#232323"/>
</svg>
